<?xml version="1.0" encoding="UTF-8"?>
<svg width="800px" height="600px" viewBox="0 0 800 600" version="1.1" xmlns="http://www.w3.org/2000/svg" xmlns:xlink="http://www.w3.org/1999/xlink">
    <title>Chat Illustration</title>
    <g stroke="none" stroke-width="1" fill="none" fill-rule="evenodd">
        <g transform="translate(100.000000, 100.000000)">
            <!-- Background Circle -->
            <circle fill="#E6F0FF" cx="300" cy="200" r="200"></circle>
            
            <!-- Chat Bubbles -->
            <g transform="translate(150.000000, 100.000000)">
                <!-- Left Bubble -->
                <g transform="translate(0.000000, 0.000000)">
                    <path d="M0,20 C0,8.954305 8.954305,0 20,0 L180,0 C191.046,0 200,8.954305 200,20 L200,80 C200,91.045695 191.046,100 180,100 L50,100 L20,130 L20,100 C8.954305,100 0,91.045695 0,80 L0,20 Z" fill="#0D6EFD"></path>
                    <rect fill="#FFFFFF" x="30" y="30" width="140" height="10" rx="5"></rect>
                    <rect fill="#FFFFFF" x="30" y="50" width="100" height="10" rx="5"></rect>
                </g>
                
                <!-- Right Bubble -->
                <g transform="translate(100.000000, 150.000000)">
                    <path d="M0,20 C0,8.954305 8.954305,0 20,0 L180,0 C191.046,0 200,8.954305 200,20 L200,80 C200,91.045695 191.046,100 180,100 L50,100 L20,130 L20,100 C8.954305,100 0,91.045695 0,80 L0,20 Z" fill="#E9ECEF"></path>
                    <rect fill="#6C757D" x="30" y="30" width="140" height="10" rx="5"></rect>
                    <rect fill="#6C757D" x="30" y="50" width="120" height="10" rx="5"></rect>
                    <rect fill="#6C757D" x="30" y="70" width="80" height="10" rx="5"></rect>
                </g>
                
                <!-- AI Bubble -->
                <g transform="translate(50.000000, 300.000000)">
                    <path d="M0,20 C0,8.954305 8.954305,0 20,0 L180,0 C191.046,0 200,8.954305 200,20 L200,80 C200,91.045695 191.046,100 180,100 L50,100 L20,130 L20,100 C8.954305,100 0,91.045695 0,80 L0,20 Z" fill="#20C997"></path>
                    <rect fill="#FFFFFF" x="30" y="20" width="140" height="10" rx="5"></rect>
                    <rect fill="#FFFFFF" x="30" y="40" width="120" height="10" rx="5"></rect>
                    <rect fill="#FFFFFF" x="30" y="60" width="140" height="10" rx="5"></rect>
                    <rect fill="#FFFFFF" x="30" y="80" width="80" height="10" rx="5"></rect>
                    
                    <!-- AI Icon -->
                    <circle fill="#FFFFFF" cx="180" cy="20" r="15"></circle>
                    <text font-family="Arial" font-size="20" font-weight="bold" fill="#20C997" x="173" y="27">AI</text>
                </g>
            </g>
            
            <!-- Sentiment Icons -->
            <g transform="translate(450.000000, 150.000000)">
                <circle fill="#28A745" cx="25" cy="25" r="25"></circle>
                <path d="M15,20 C17.7614,20 20,17.7614 20,15 C20,12.2386 17.7614,10 15,10 C12.2386,10 10,12.2386 10,15 C10,17.7614 12.2386,20 15,20 Z" fill="#FFFFFF"></path>
                <path d="M35,20 C37.7614,20 40,17.7614 40,15 C40,12.2386 37.7614,10 35,10 C32.2386,10 30,12.2386 30,15 C30,17.7614 32.2386,20 35,20 Z" fill="#FFFFFF"></path>
                <path d="M10,30 C10,30 15,40 25,40 C35,40 40,30 40,30" stroke="#FFFFFF" stroke-width="3" stroke-linecap="round"></path>
            </g>
            
            <g transform="translate(450.000000, 220.000000)">
                <circle fill="#FFC107" cx="25" cy="25" r="25"></circle>
                <path d="M15,20 C17.7614,20 20,17.7614 20,15 C20,12.2386 17.7614,10 15,10 C12.2386,10 10,12.2386 10,15 C10,17.7614 12.2386,20 15,20 Z" fill="#FFFFFF"></path>
                <path d="M35,20 C37.7614,20 40,17.7614 40,15 C40,12.2386 37.7614,10 35,10 C32.2386,10 30,12.2386 30,15 C30,17.7614 32.2386,20 35,20 Z" fill="#FFFFFF"></path>
                <line x1="15" y1="35" x2="35" y2="35" stroke="#FFFFFF" stroke-width="3" stroke-linecap="round"></line>
            </g>
            
            <g transform="translate(450.000000, 290.000000)">
                <circle fill="#DC3545" cx="25" cy="25" r="25"></circle>
                <path d="M15,20 C17.7614,20 20,17.7614 20,15 C20,12.2386 17.7614,10 15,10 C12.2386,10 10,12.2386 10,15 C10,17.7614 12.2386,20 15,20 Z" fill="#FFFFFF"></path>
                <path d="M35,20 C37.7614,20 40,17.7614 40,15 C40,12.2386 37.7614,10 35,10 C32.2386,10 30,12.2386 30,15 C30,17.7614 32.2386,20 35,20 Z" fill="#FFFFFF"></path>
                <path d="M10,40 C10,40 15,30 25,30 C35,30 40,40 40,40" stroke="#FFFFFF" stroke-width="3" stroke-linecap="round"></path>
            </g>
            
            <!-- AI Brain -->
            <g transform="translate(400.000000, 50.000000)">
                <circle fill="#F8F9FA" cx="50" cy="50" r="50"></circle>
                <path d="M30,30 L70,30 L70,70 L30,70 Z" stroke="#0D6EFD" stroke-width="3" fill="none"></path>
                <path d="M40,40 L60,40 L60,60 L40,60 Z" stroke="#0D6EFD" stroke-width="3" fill="none"></path>
                <line x1="30" y1="30" x2="40" y2="40" stroke="#0D6EFD" stroke-width="3"></line>
                <line x1="70" y1="30" x2="60" y2="40" stroke="#0D6EFD" stroke-width="3"></line>
                <line x1="30" y1="70" x2="40" y2="60" stroke="#0D6EFD" stroke-width="3"></line>
                <line x1="70" y1="70" x2="60" y2="60" stroke="#0D6EFD" stroke-width="3"></line>
                <circle fill="#0D6EFD" cx="50" cy="50" r="5"></circle>
            </g>
        </g>
    </g>
</svg>
